<svg xmlns="http://www.w3.org/2000/svg" width="112" height="112" viewBox="0 0 112 112" fill="none" class="injected-svg" data-src="/static/media/folder-plus.211a8e62.svg" xmlns:xlink="http://www.w3.org/1999/xlink">
<path d="M8.76701 13.4338C11.3925 10.8083 14.9535 9.33331 18.6665 9.33331H41.9998C43.5602 9.33331 45.0172 10.1131 45.8827 11.4114L53.8307 23.3333H93.3332C97.0462 23.3333 100.607 24.8083 103.233 27.4338C105.858 30.0593 107.333 33.6203 107.333 37.3333V88.6666C107.333 92.3797 105.858 95.9406 103.233 98.5661C100.607 101.192 97.0462 102.667 93.3332 102.667H18.6665C14.9535 102.667 11.3925 101.192 8.76701 98.5661C6.1415 95.9406 4.6665 92.3797 4.6665 88.6666V23.3333C4.6665 19.6203 6.1415 16.0593 8.76701 13.4338Z" fill="#E8E8E8"></path>
<path fill-rule="evenodd" clip-rule="evenodd" d="M56.0002 46.6665C58.5775 46.6665 60.6668 48.7558 60.6668 51.3332V79.3332C60.6668 81.9105 58.5775 83.9998 56.0002 83.9998C53.4228 83.9998 51.3335 81.9105 51.3335 79.3332V51.3332C51.3335 48.7558 53.4228 46.6665 56.0002 46.6665Z" fill="white"></path>
<path fill-rule="evenodd" clip-rule="evenodd" d="M37.3335 65.3332C37.3335 62.7558 39.4228 60.6665 42.0002 60.6665H70.0002C72.5775 60.6665 74.6668 62.7558 74.6668 65.3332C74.6668 67.9105 72.5775 69.9998 70.0002 69.9998H42.0002C39.4228 69.9998 37.3335 67.9105 37.3335 65.3332Z" fill="white"></path>
</svg>