<svg width="20" height="20" viewBox="0 0 20 20" fill="none" xmlns="http://www.w3.org/2000/svg">
<path fill-rule="evenodd" clip-rule="evenodd" d="M10.0002 2.49992C5.85803 2.49992 2.50016 5.85778 2.50016 9.99992C2.50016 14.1421 5.85803 17.4999 10.0002 17.4999C14.1423 17.4999 17.5002 14.1421 17.5002 9.99992C17.5002 5.85778 14.1423 2.49992 10.0002 2.49992ZM0.833496 9.99992C0.833496 4.93731 4.93755 0.833252 10.0002 0.833252C15.0628 0.833252 19.1668 4.93731 19.1668 9.99992C19.1668 15.0625 15.0628 19.1666 10.0002 19.1666C4.93755 19.1666 0.833496 15.0625 0.833496 9.99992Z" fill="#2BAEE0"/>
<path fill-rule="evenodd" clip-rule="evenodd" d="M0.833496 10.0001C0.833496 9.53984 1.20659 9.16675 1.66683 9.16675H18.3335C18.7937 9.16675 19.1668 9.53984 19.1668 10.0001C19.1668 10.4603 18.7937 10.8334 18.3335 10.8334H1.66683C1.20659 10.8334 0.833496 10.4603 0.833496 10.0001Z" fill="#2BAEE0"/>
<path fill-rule="evenodd" clip-rule="evenodd" d="M7.50036 10.0001C7.55747 12.5625 8.43871 15.0294 10.0002 17.0411C11.5616 15.0294 12.4429 12.5625 12.5 10.0001C12.4429 7.43772 11.5616 4.97079 10.0002 2.95909C8.43871 4.97079 7.55747 7.43772 7.50036 10.0001ZM10.0002 1.66676L9.38488 1.10474C7.16424 3.53584 5.90226 6.6908 5.83368 9.98273C5.83344 9.9943 5.83344 10.0059 5.83368 10.0174C5.90226 13.3094 7.16424 16.4643 9.38488 18.8954C9.54276 19.0683 9.76606 19.1668 10.0002 19.1668C10.2343 19.1668 10.4576 19.0683 10.6155 18.8954C12.8361 16.4643 14.0981 13.3094 14.1666 10.0174C14.1669 10.0059 14.1669 9.9943 14.1666 9.98273C14.0981 6.6908 12.8361 3.53584 10.6155 1.10474L10.0002 1.66676Z" fill="#2BAEE0"/>
</svg>
