<svg width="42" height="42" viewBox="0 0 42 42" fill="none" xmlns="http://www.w3.org/2000/svg">
<g clip-path="url(#clip0)">
<path d="M22.178 20.9834L35.8296 7.32098C36.1614 6.98896 36.1614 6.45774 35.8296 6.14232C35.4979 5.81031 34.9671 5.81031 34.6519 6.14232L20.6851 20.1036C20.6353 20.1534 20.6022 20.2032 20.5524 20.2696C20.486 20.3028 20.4363 20.336 20.3865 20.4024C20.0548 20.7344 20.0548 21.2656 20.3865 21.5811L34.6353 35.8411C34.8012 36.0071 35.0168 36.0902 35.2325 36.0902C35.4481 36.0902 35.6638 36.0071 35.8296 35.8411C36.1614 35.5091 36.1614 34.9779 35.8296 34.6625L22.178 20.9834Z" fill="#E92D30"/>
<path d="M20.9837 13.0316C20.5192 13.0316 20.1543 12.6498 20.1543 12.2016V0.83004C20.1543 0.365217 20.5358 0 20.9837 0C21.4315 0 21.8131 0.381818 21.8131 0.83004V12.2016C21.8297 12.6498 21.4481 13.0316 20.9837 13.0316Z" fill="#FFDA00"/>
<path d="M20.9837 42C20.5192 42 20.1543 41.6182 20.1543 41.17V29.7984C20.1543 29.3336 20.5358 28.9684 20.9837 28.9684C21.4481 28.9684 21.8131 29.3502 21.8131 29.7984V41.17C21.8297 41.6182 21.4481 42 20.9837 42Z" fill="#F6921E"/>
<path d="M41.9833 21.1493C41.9833 21.1327 41.9833 21.0995 41.9833 21.0829C41.9833 21.0497 41.9998 21.0165 41.9998 20.9833C41.9998 20.9501 41.9998 20.9169 41.9833 20.8837C41.9833 20.8671 41.9833 20.8339 41.9833 20.8173C41.9501 20.6679 41.8837 20.5185 41.751 20.3857L36.1112 14.7414C35.7795 14.4094 35.2487 14.4094 34.9169 14.7414C34.5852 15.0735 34.5852 15.6047 34.9169 15.9367L39.1468 20.1699H29.8245C29.36 20.1699 28.9951 20.5517 28.9951 20.9999C28.9951 21.4648 29.3766 21.83 29.8245 21.83H39.1302L34.9003 26.0632C34.5686 26.3952 34.5686 26.9264 34.9003 27.2584C35.0662 27.4245 35.2818 27.5075 35.4975 27.5075C35.7131 27.5075 35.9288 27.4245 36.0946 27.2584L41.7344 21.6142C41.8671 21.4648 41.9501 21.332 41.9833 21.1493C41.9833 21.166 41.9833 21.166 41.9833 21.1493Z" fill="#122434"/>
<path d="M7.33175 6.14232C7 5.81031 6.46919 5.81031 6.15402 6.14232C5.82227 6.47434 5.82227 7.00556 6.15402 7.32098L18.9763 20.1534H0.829384C0.364929 20.1534 0 20.5352 0 20.9834C0 21.4483 0.381516 21.8135 0.829384 21.8135H18.9763L6.15402 34.6459C5.82227 34.9779 5.82227 35.5091 6.15402 35.8245C6.3199 35.9905 6.53554 36.0735 6.75118 36.0735C6.96682 36.0735 7.18246 35.9905 7.34834 35.8245L22.1943 20.9668L7.33175 6.14232Z" fill="#122434"/>
</g>
<defs>
<clipPath id="clip0">
<rect width="42" height="42" fill="white"/>
</clipPath>
</defs>
</svg>
