<svg width="24" height="24" viewBox="0 0 24 24" fill="none" xmlns="http://www.w3.org/2000/svg">
<path fill-rule="evenodd" clip-rule="evenodd" d="M11.1999 5.59999C8.10717 5.59999 5.59999 8.10717 5.59999 11.1999C5.59999 14.2927 8.10717 16.7999 11.1999 16.7999C14.2927 16.7999 16.7999 14.2927 16.7999 11.1999C16.7999 8.10717 14.2927 5.59999 11.1999 5.59999ZM4 11.1999C4 7.22353 7.22353 4 11.1999 4C15.1764 4 18.3999 7.22353 18.3999 11.1999C18.3999 15.1764 15.1764 18.3999 11.1999 18.3999C7.22353 18.3999 4 15.1764 4 11.1999Z" fill="#737373"/>
<path fill-rule="evenodd" clip-rule="evenodd" d="M15.1542 15.1542C15.4667 14.8418 15.9732 14.8418 16.2856 15.1542L19.7656 18.6342C20.078 18.9466 20.078 19.4532 19.7656 19.7656C19.4532 20.078 18.9466 20.078 18.6342 19.7656L15.1542 16.2856C14.8418 15.9732 14.8418 15.4667 15.1542 15.1542Z" fill="#737373"/>
</svg>
