<svg xmlns="http://www.w3.org/2000/svg" width="110" height="96" viewBox="0 0 110 96" fill="none" class="injected-svg" data-src="/static/media/cannot-saved.7739fd4b.svg" xmlns:xlink="http://www.w3.org/1999/xlink">
<path d="M110 90C110 93.3137 107.314 96 104 96H6C2.68629 96 0 93.3137 0 90V6C0 2.68629 2.68629 0 6 0H104C107.314 0 110 2.68629 110 6V90Z" fill="#F4FBFF"></path>
<path d="M19.5508 19.9961H64.668V26.4414H19.5508V19.9961Z" fill="#2BAEE0"></path>
<path d="M71.1133 19.9961H90.4492V26.4414H71.1133V19.9961Z" fill="#259FCE"></path>
<path d="M19.5508 45.7773H38.8867V52.2227H19.5508V45.7773Z" fill="#2BAEE0"></path>
<path d="M45.332 45.7773H90.4492V52.2227H45.332V45.7773Z" fill="#4DC4FF"></path>
<path d="M42.1094 58.668C36.7782 58.668 32.4414 54.3311 32.4414 49C32.4414 43.6689 36.7782 39.332 42.1094 39.332C47.4405 39.332 51.7773 43.6689 51.7773 49C51.7773 54.3311 47.4405 58.668 42.1094 58.668Z" fill="#365E7D"></path>
<path d="M19.5508 71.5586H64.668V78.0039H19.5508V71.5586Z" fill="#2BAEE0"></path>
<path d="M71.1133 71.5586H90.4492V78.0039H71.1133V71.5586Z" fill="#259FCE"></path>
<path d="M55 0H104C107.314 0 110 2.68629 110 6V90C110 93.3137 107.314 96 104 96H55V0Z" fill="#DAF1F4"></path>
<path d="M55 71.5586H64.668V78.0039H55V71.5586Z" fill="#4DA6FF"></path>
<path d="M55 45.7773H90.4492V52.2227H55V45.7773Z" fill="#259FCE"></path>
<path d="M55 19.9961H64.668V26.4414H55V19.9961Z" fill="#4DA6FF"></path>
<path d="M67.8906 32.8867C62.5595 32.8867 58.2227 28.5499 58.2227 23.2188C58.2227 17.8876 62.5595 13.5508 67.8906 13.5508C73.2218 13.5508 77.5586 17.8876 77.5586 23.2188C77.5586 28.5499 73.2218 32.8867 67.8906 32.8867Z" fill="#1E4564"></path>
<path d="M67.8906 84.4492C62.5595 84.4492 58.2227 80.1124 58.2227 74.7812C58.2227 69.4501 62.5595 65.1133 67.8906 65.1133C73.2218 65.1133 77.5586 69.4501 77.5586 74.7812C77.5586 80.1124 73.2218 84.4492 67.8906 84.4492Z" fill="#1E4564"></path>
</svg>