<svg width="24" height="24" viewBox="0 0 24 24" fill="none" xmlns="http://www.w3.org/2000/svg">
<path fill-rule="evenodd" clip-rule="evenodd" d="M10.6667 6.66667C10.6667 7.03486 10.3683 7.33333 10.0001 7.33333L5.33341 7.33333C4.96522 7.33333 4.66675 7.03486 4.66675 6.66667C4.66675 6.29848 4.96522 6 5.33341 6L10.0001 6C10.3683 6 10.6667 6.29848 10.6667 6.66667Z" fill="#737373"/>
<path fill-rule="evenodd" clip-rule="evenodd" d="M18 6.66667C18 7.03486 17.7015 7.33333 17.3333 7.33333L12.6667 7.33333C12.2985 7.33333 12 7.03486 12 6.66667C12 6.29848 12.2985 6 12.6667 6L17.3333 6C17.7015 6 18 6.29848 18 6.66667Z" fill="#737373"/>
<path fill-rule="evenodd" clip-rule="evenodd" d="M12 12.0002C12 12.3684 11.7015 12.6668 11.3333 12.6668L5.33333 12.6668C4.96514 12.6668 4.66667 12.3684 4.66667 12.0002C4.66667 11.632 4.96514 11.3335 5.33333 11.3335L11.3333 11.3335C11.7015 11.3335 12 11.632 12 12.0002Z" fill="#737373"/>
<path fill-rule="evenodd" clip-rule="evenodd" d="M18 12.0002C18 12.3684 17.7015 12.6668 17.3333 12.6668L14 12.6668C13.6318 12.6668 13.3333 12.3684 13.3333 12.0002C13.3333 11.632 13.6318 11.3335 14 11.3335L17.3333 11.3335C17.7015 11.3335 18 11.632 18 12.0002Z" fill="#737373"/>
<path fill-rule="evenodd" clip-rule="evenodd" d="M9.33325 17.3332C9.33325 17.7014 9.03478 17.9998 8.66659 17.9998L5.33325 17.9998C4.96506 17.9998 4.66658 17.7014 4.66658 17.3332C4.66658 16.965 4.96506 16.6665 5.33325 16.6665L8.66659 16.6665C9.03478 16.6665 9.33325 16.965 9.33325 17.3332Z" fill="#737373"/>
<path fill-rule="evenodd" clip-rule="evenodd" d="M18 17.3332C18 17.7014 17.7015 17.9998 17.3333 17.9998L11.3333 17.9998C10.9651 17.9998 10.6667 17.7014 10.6667 17.3332C10.6667 16.965 10.9651 16.6665 11.3333 16.6665L17.3333 16.6665C17.7015 16.6665 18 16.965 18 17.3332Z" fill="#737373"/>
<path fill-rule="evenodd" clip-rule="evenodd" d="M10.0001 4C10.3683 4 10.6667 4.29848 10.6667 4.66667L10.6667 8.66667C10.6667 9.03486 10.3683 9.33333 10.0001 9.33333C9.63189 9.33333 9.33342 9.03486 9.33342 8.66667L9.33342 4.66667C9.33342 4.29848 9.63189 4 10.0001 4Z" fill="#737373"/>
<path fill-rule="evenodd" clip-rule="evenodd" d="M14.0001 9.3335C14.3683 9.3335 14.6667 9.63197 14.6667 10.0002L14.6667 14.0002C14.6667 14.3684 14.3683 14.6668 14.0001 14.6668C13.6319 14.6668 13.3334 14.3684 13.3334 14.0002L13.3334 10.0002C13.3334 9.63197 13.6319 9.3335 14.0001 9.3335Z" fill="#737373"/>
<path fill-rule="evenodd" clip-rule="evenodd" d="M8.66659 14.6665C9.03478 14.6665 9.33325 14.965 9.33325 15.3332L9.33325 19.3332C9.33325 19.7014 9.03477 19.9998 8.66659 19.9998C8.2984 19.9998 7.99992 19.7014 7.99992 19.3332L7.99992 15.3332C7.99992 14.965 8.2984 14.6665 8.66659 14.6665Z" fill="#737373"/>
</svg>
